<?xml version="1.0" encoding="UTF-8"?>
<svg id="Layer_1" data-name="Layer 1" xmlns="http://www.w3.org/2000/svg" viewBox="0 0 124.18 113.7">
  <defs>
    <style>
      .cls-1 {
        fill: #231f20;
        font-family: AvenirNext-Regular, 'Avenir Next';
        font-size: 10px;
      }

      .cls-2 {
        font-size: 16.21px;
        letter-spacing: -.05em;
      }

      .cls-2, .cls-3 {
        fill: #1a5694;
        font-family: AvenirNextCondensed-DemiBold, 'Avenir Next Condensed';
        font-weight: 300;
      }

      .cls-4 {
        stroke-miterlimit: 10;
      }

      .cls-4, .cls-5 {
        fill: none;
        stroke: #1c5695;
        stroke-linecap: round;
        stroke-width: 1.5px;
      }

      .cls-3 {
        font-size: 21.15px;
        letter-spacing: -.05em;
      }

      .cls-6 {
        letter-spacing: -.1em;
      }

      .cls-7 {
        letter-spacing: -.02em;
      }

      .cls-8 {
        letter-spacing: -.02em;
      }

      .cls-5 {
        stroke-linejoin: round;
      }

      .cls-9 {
        letter-spacing: -.02em;
      }

      .cls-10 {
        letter-spacing: -.03em;
      }

      .cls-11 {
        letter-spacing: -.03em;
      }

      .cls-12 {
        letter-spacing: -.01em;
      }

      .cls-13 {
        letter-spacing: 0em;
      }
    </style>
  </defs>
  <g>
    <g>
      <text class="cls-3" transform="translate(51.11 37.3) rotate(-16.01)"><tspan x="0" y="0">z</tspan></text>
      <text class="cls-2" transform="translate(57.33 28.89) rotate(-16.01)"><tspan x="0" y="0">z</tspan></text>
      <text class="cls-2" transform="translate(62.25 24.33) rotate(-16.01)"><tspan x="0" y="0">z</tspan></text>
    </g>
    <path class="cls-4" d="M39.59,49.38s3.49-3.49,7.23-4.7c3.73-1.2,10.24,0,11.93-2.29,1.69-2.29,5.42-6.14,6.63-3.13,1.2,3.01,2.39,3.15,3.61,2.48s2.82-.74,3.25.06c.43.8,1.23,2.39.98,4.23s-1.9,3.35-1.9,3.35"/>
    <path class="cls-4" d="M73.26,44.97s.14-4.07,1.3-3.17,2.28,2.17,3.68,2.17,5.56-.98,5.27,5.41,1.08,7.34,1.08,7.34"/>
    <path class="cls-5" d="M54.82,50.53c1.77,0,3.2,1.43,3.2,3.2s-1.43,3.2-3.2,3.2"/>
  </g>
  <text class="cls-1" transform="translate(24.33 83.97)"><tspan class="cls-6" x="0" y="0">T</tspan><tspan class="cls-11" x="4.7" y="0">r</tspan><tspan class="cls-9" x="8.02" y="0">e</tspan><tspan class="cls-8" x="13.58" y="0">a</tspan><tspan class="cls-13" x="18.72" y="0">tment Under</tspan><tspan class="cls-13" x="-8.34" y="12">Gene</tspan><tspan class="cls-7" x="16.29" y="12">r</tspan><tspan class="cls-13" x="19.67" y="12">al</tspan><tspan class="cls-10" x="27.33" y="12"> </tspan><tspan class="cls-12" x="29.55" y="12">Anaesthesia</tspan></text>
</svg>